<?xml version="1.0" standalone="no"?>
<!DOCTYPE svg PUBLIC "-//W3C//DTD SVG 20010904//EN"
 "http://www.w3.org/TR/2001/REC-SVG-20010904/DTD/svg10.dtd">
<svg version="1.0" xmlns="http://www.w3.org/2000/svg"
 width="1063.000000pt" height="1063.000000pt" viewBox="0 0 1063.000000 1063.000000"
 preserveAspectRatio="xMidYMid meet">
<metadata>
Created by potrace 1.11, written by Peter Selinger 2001-2013
</metadata>
<g transform="translate(0.000000,1063.000000) scale(0.100000,-0.100000)"
fill="#000000" stroke="none">
<path d="M3727 10290 c-8 -92 8 -232 38 -344 14 -50 24 -91 22 -92 -1 -1 -319
-9 -707 -18 -976 -22 -1090 -26 -1090 -40 0 -38 325 -533 466 -711 108 -136
299 -328 378 -380 l58 -39 -48 -40 c-57 -47 -144 -137 -144 -149 0 -5 19 -6
43 -2 l42 7 -66 -61 c-78 -71 -139 -150 -242 -316 -124 -200 -198 -359 -251
-540 -30 -104 -57 -235 -47 -235 3 0 25 35 49 78 40 72 130 188 119 152 -3 -8
-36 -80 -72 -160 -113 -244 -173 -399 -210 -543 -41 -162 -52 -271 -64 -637
-9 -259 -10 -268 -45 -404 -20 -77 -64 -208 -97 -290 -126 -310 -139 -344
-154 -401 -15 -60 -21 -255 -7 -255 4 0 18 26 31 56 14 31 41 82 61 113 39 60
140 185 145 179 2 -2 -6 -46 -17 -98 -17 -76 -21 -130 -21 -265 0 -187 15
-271 70 -384 l27 -56 6 65 c6 64 6 65 14 25 17 -86 40 -163 67 -223 29 -64 87
-147 97 -138 3 3 0 11 -5 18 -35 43 -88 278 -64 278 6 0 11 -6 11 -12 1 -43
157 -318 181 -318 3 0 0 23 -7 50 -14 53 -36 201 -31 206 1 2 38 -54 81 -123
193 -307 409 -567 686 -827 335 -314 877 -675 1144 -762 109 -36 206 -63 206
-59 0 2 -25 18 -56 35 -30 18 -53 34 -50 37 2 2 35 -7 73 -20 106 -38 303 -76
303 -58 0 5 -21 12 -47 16 -64 9 -149 42 -199 76 -38 26 -99 88 -92 94 2 2
111 -21 243 -51 868 -194 1186 -282 1550 -429 195 -79 620 -300 762 -397 43
-29 59 -35 48 -19 -3 5 -1 12 3 15 5 3 28 -15 52 -39 24 -25 40 -45 34 -45 -5
0 -15 5 -22 12 -7 7 -12 8 -12 2 0 -6 11 -21 25 -34 l26 -24 -23 -13 c-35 -19
-36 -17 -43 41 -5 34 -13 57 -22 60 -13 5 -14 -3 -8 -54 5 -42 3 -65 -5 -75
-10 -12 -9 -16 4 -21 12 -5 15 -17 12 -60 -2 -30 0 -54 4 -54 12 0 20 28 20
72 0 39 0 40 33 33 17 -4 60 -19 95 -32 35 -14 66 -23 69 -19 3 3 -11 26 -31
51 -40 49 -40 57 2 24 32 -25 37 -15 23 51 -6 28 -11 61 -11 73 1 21 2 21 26
-7 14 -15 27 -26 30 -24 2 3 -3 27 -11 54 -17 57 -18 64 -6 64 4 0 16 -19 25
-42 24 -63 84 -141 102 -134 11 4 14 1 12 -11 -2 -9 -9 -18 -15 -20 -14 -5
-66 42 -76 67 -5 13 -7 13 -16 0 -8 -12 -13 -12 -30 4 -24 22 -26 14 -10 -53
7 -33 7 -46 -2 -52 -6 -4 -8 -12 -4 -19 5 -8 10 -9 14 -1 13 21 244 -172 442
-369 190 -189 282 -299 379 -455 35 -56 296 -567 343 -673 16 -36 22 671 8
869 -12 166 -52 406 -91 554 -59 224 -177 496 -299 690 -34 54 -60 99 -58 101
7 8 130 -127 197 -216 64 -86 200 -334 200 -366 0 -7 5 -16 11 -19 13 -9 4
210 -17 385 -20 163 -87 484 -131 630 -69 228 -152 413 -260 579 -30 46 -52
85 -50 87 2 2 74 -67 160 -154 220 -221 302 -326 472 -605 42 -70 79 -126 81
-125 5 6 -34 153 -68 258 -53 164 -247 602 -323 731 -81 136 -104 179 -95 179
12 0 96 -65 153 -119 26 -25 85 -89 129 -143 45 -53 84 -95 86 -93 3 2 -23 60
-57 127 -79 159 -190 307 -361 482 -270 276 -525 449 -837 565 -129 49 -304
101 -342 102 -26 1 -26 1 4 10 17 6 80 7 149 4 190 -10 339 -56 486 -149 30
-19 57 -32 60 -29 3 3 -26 34 -65 69 -72 66 -181 129 -270 157 -92 29 -357 60
-745 87 -257 18 -496 68 -625 130 -195 94 -316 247 -398 505 -60 187 -70 257
-65 445 5 190 21 246 88 323 37 42 129 111 137 104 2 -2 -8 -28 -21 -58 -28
-64 -47 -129 -38 -129 4 1 25 25 47 55 47 64 102 113 205 182 134 90 251 138
471 193 138 35 135 35 118 14 -13 -15 -8 -16 53 -10 36 4 88 14 114 22 27 8
100 17 164 21 114 6 115 6 147 -21 40 -34 61 -33 103 4 35 29 60 38 60 21 0
-22 34 -41 73 -41 25 0 56 -9 76 -21 34 -21 57 -21 120 -3 20 6 22 4 17 -13
-6 -18 -2 -19 86 -15 72 3 99 8 120 23 l28 20 0 -70 c0 -38 3 -76 6 -85 8 -21
24 -10 24 16 0 40 34 80 88 104 36 17 59 35 73 59 24 41 50 58 74 48 14 -5 16
-16 13 -59 -5 -62 -4 -62 75 12 47 45 55 58 59 97 7 58 67 186 116 247 20 25
68 80 107 123 79 88 115 142 115 174 0 11 -8 48 -19 81 l-18 61 28 27 c44 42
93 146 149 319 71 217 120 339 191 473 68 132 105 189 188 292 34 41 61 78 61
81 0 3 -118 9 -262 12 -377 9 -665 44 -968 118 -393 96 -761 271 -1015 481
-106 88 -284 267 -390 392 -134 158 -248 266 -316 299 -48 23 -73 28 -219 37
-383 24 -472 32 -608 55 -320 55 -763 179 -1181 331 -95 35 -177 64 -181 64
-4 0 -10 -32 -13 -70z"/>
<path d="M7115 1611 c-3 -6 -1 -19 4 -29 6 -11 7 -23 3 -27 -4 -5 -1 -5 6 -1
6 4 12 14 12 22 0 23 16 16 29 -12 19 -42 24 -21 5 22 -9 22 -18 33 -21 26 -4
-9 -8 -10 -18 -2 -9 7 -15 8 -20 1z"/>
<path d="M7065 1580 c-4 -6 -11 -7 -17 -4 -6 4 -3 -5 8 -19 17 -24 43 -39 30
-18 -3 5 1 12 10 15 13 5 14 9 4 21 -15 17 -26 19 -35 5z"/>
<path d="M6960 1570 c0 -6 4 -8 10 -5 5 3 15 -14 21 -39 l11 -46 28 23 c15 12
25 25 23 30 -2 4 -12 0 -20 -9 -15 -15 -18 -13 -32 17 -16 33 -41 51 -41 29z"/>
<path d="M6950 1545 c0 -5 9 -21 20 -35 11 -14 20 -20 20 -15 0 6 -9 21 -20
35 -11 14 -20 21 -20 15z"/>
</g>
</svg>
